<svg width="40" height="40" viewBox="0 0 40 40" fill="none" xmlns="http://www.w3.org/2000/svg">
<g id="vuesax/outline/shield-tick">
<g id="shield-tick">
<path id="Vector" d="M8.09912 30.5993L8.09889 30.5991C7.22616 29.9484 6.42555 28.9207 5.84276 27.7591C5.25992 26.5974 4.91669 25.3452 4.91669 24.2667V11.8667C4.91669 9.50745 6.67152 6.96186 8.89119 6.13522L8.89215 6.13486L17.2084 3.01835C17.2085 3.01832 17.2086 3.01829 17.2086 3.01826C17.9621 2.7367 18.9616 2.58749 19.9834 2.58749C21.0051 2.58749 22.0046 2.7367 22.7581 3.01826C22.7581 3.01829 22.7582 3.01832 22.7583 3.01835L31.0746 6.13486L31.0755 6.13522C33.2952 6.96186 35.05 9.50745 35.05 11.8667V24.25C35.05 25.3372 34.7066 26.5893 34.1241 27.7484C33.5416 28.9074 32.7411 29.9314 31.8678 30.5825L31.8676 30.5827L24.7009 35.9327L24.7009 35.9326L24.6947 35.9374C23.412 36.9264 21.724 37.4333 20 37.4333C18.2774 37.4333 16.5852 36.927 15.2649 35.9487C15.2647 35.9485 15.2646 35.9484 15.2644 35.9483L8.09912 30.5993ZM17.7419 4.43154L17.7412 4.43179L9.42456 7.54846L9.42386 7.54872C8.59627 7.86028 7.85504 8.52257 7.32412 9.2907C6.79303 10.0591 6.43335 10.9898 6.43335 11.8833V24.2667C6.43335 25.1611 6.74394 26.1893 7.20094 27.1011C7.65782 28.0127 8.29331 28.8723 9.00087 29.4006L9.00092 29.4007L16.1672 34.7504C17.2292 35.5446 18.6283 35.925 20.0021 35.925C21.3761 35.925 22.7783 35.5446 23.8478 34.7517L23.8491 34.7507L31.0158 29.4007L31.0167 29.4C31.7314 28.8639 32.3669 28.0051 32.8222 27.0944C33.2776 26.1838 33.5834 25.1601 33.5834 24.2667V11.8667C33.5834 10.9805 33.2229 10.0538 32.6926 9.28654C32.1621 8.51898 31.4223 7.85406 30.5976 7.53389L30.5977 7.53386L30.5921 7.53179L22.2755 4.41512L22.2755 4.41504L22.2664 4.41183C21.6283 4.1866 20.8002 4.08323 20.0007 4.08541C19.2021 4.08759 18.3752 4.19523 17.7419 4.43154Z" fill="#FAFAFA" stroke="#FAFAFA"/>
<path id="Vector_2" d="M17.4131 21.0536L17.7667 21.4071L18.1202 21.0536L24.4035 14.7702C24.6916 14.4822 25.175 14.4822 25.4631 14.7702C25.7512 15.0583 25.7512 15.5417 25.4631 15.8298L18.2964 22.9965C18.1451 23.1477 17.9579 23.2167 17.7667 23.2167C17.5754 23.2167 17.3882 23.1477 17.2369 22.9965L14.5535 20.3131C14.2655 20.025 14.2655 19.5416 14.5535 19.2536C14.8416 18.9655 15.325 18.9655 15.6131 19.2536L17.4131 21.0536Z" fill="#FAFAFA" stroke="#FAFAFA"/>
</g>
</g>
</svg>
